<?xml version="1.0" encoding="utf-8"?>
<!-- Generator: Adobe Illustrator 23.0.0, SVG Export Plug-In . SVG Version: 6.00 Build 0)  -->
<svg version="1.1" id="Capa_1" xmlns="http://www.w3.org/2000/svg" xmlns:xlink="http://www.w3.org/1999/xlink" x="0px" y="0px"
	 viewBox="0 0 512 512" style="enable-background:new 0 0 512 512;" xml:space="preserve">
<style type="text/css">
	.st0{fill:#7777FF;}
</style>
<path class="st0" d="M477.7,87.4H34.3c-18,0-32.6-12.7-32.6-28.3s14.6-28.3,32.6-28.3h443.3c18,0,32.6,12.7,32.6,28.3
	S495.7,87.4,477.7,87.4z"/>
<path class="st0" d="M180.9,284.3h292.5c20.2,0,36.6-12.7,36.6-28.3c0-15.7-16.4-28.3-36.6-28.3H180.9c-20.2,0-36.6,12.7-36.6,28.3
	C144.3,271.6,160.7,284.3,180.9,284.3z"/>
<path class="st0" d="M477.7,481.3H34.3c-18,0-32.6-12.7-32.6-28.3s14.6-28.3,32.6-28.3h443.3c18,0,32.6,12.7,32.6,28.3
	C510.3,468.6,495.7,481.3,477.7,481.3z"/>
</svg>
