<?xml version="1.0" encoding="utf-8"?>
<!-- Generator: Adobe Illustrator 24.1.1, SVG Export Plug-In . SVG Version: 6.00 Build 0)  -->
<svg version="1.1" id="Capa_1" xmlns="http://www.w3.org/2000/svg" xmlns:xlink="http://www.w3.org/1999/xlink" x="0px" y="0px"
	 viewBox="0 0 512 512" style="enable-background:new 0 0 512 512;" xml:space="preserve">
<style type="text/css">
	.st0{fill:#2FA5F6;}
</style>
<g>
	<path class="st0" d="M56.8,473h398.3c19.5,0,35.3-15.8,35.3-35.3v0c0-19.5-15.8-35.3-35.3-35.3H56.8c-19.5,0-35.3,15.8-35.3,35.3v0
		C21.5,457.2,37.3,473,56.8,473z M56.8,296.3h398.3c19.5,0,35.3-15.8,35.3-35.3v0c0-19.5-15.8-35.3-35.3-35.3H56.8
		c-19.5,0-35.3,15.8-35.3,35.3v0C21.5,280.5,37.3,296.3,56.8,296.3z M21.5,84.3L21.5,84.3c0,19.5,15.8,35.3,35.3,35.3h398.3
		c19.5,0,35.3-15.8,35.3-35.3v0c0-19.5-15.8-35.3-35.3-35.3H56.8C37.3,49,21.5,64.8,21.5,84.3z"/>
</g>
</svg>
